HIERARCHY
ROOT Hips
{
	OFFSET 0.00 0.00 0.00
	CHANNELS 6 Xposition Yposition Zposition Xrotation Yrotation Zrotation
	JOINT LeftUpLeg
	{
		OFFSET 2.83210 0.00000 0.00000
		CHANNELS 3 Xrotation Yrotation Zrotation
		JOINT LeftLeg
		{
			OFFSET 0.00000 -16.27150 0.00000
			CHANNELS 3 Xrotation Yrotation Zrotation
			JOINT LeftFoot
			{
				OFFSET 0.00000 -14.95190 0.00000
				CHANNELS 3 Xrotation Yrotation Zrotation
				JOINT LeftToeBase
				{
					OFFSET 0.00000 -1.07991 4.03030
					CHANNELS 3 Xrotation Yrotation Zrotation
					End Site
					{
						OFFSET 0.00000 0.00000 2.95275
					}
				}
			}
		}
	}
	JOINT RightUpLeg
	{
		OFFSET -2.83210 0.00000 0.00000
		CHANNELS 3 Xrotation Yrotation Zrotation
		JOINT RightLeg
		{
			OFFSET 0.00000 -16.27150 0.00000
			CHANNELS 3 Xrotation Yrotation Zrotation
			JOINT RightFoot
			{
				OFFSET 0.00000 -14.95190 0.00000
				CHANNELS 3 Xrotation Yrotation Zrotation
				JOINT RightToeBase
				{
					OFFSET 0.00000 -1.07991 4.03030
					CHANNELS 3 Xrotation Yrotation Zrotation
					End Site
					{
						OFFSET 0.00000 0.00000 2.95275
					}
				}
			}
		}
	}
	JOINT Spine
	{
		OFFSET 0.00000 0.03937 0.00000
		CHANNELS 3 Xrotation Yrotation Zrotation
		JOINT Spine1
		{
			OFFSET 0.00000 8.01054 0.00000
			CHANNELS 3 Xrotation Yrotation Zrotation
			JOINT Neck
			{
				OFFSET 0.00000 8.21888 0.00000
				CHANNELS 3 Xrotation Yrotation Zrotation
				JOINT Head
				{
					OFFSET 0.00000 3.25664 0.00000
					CHANNELS 3 Xrotation Yrotation Zrotation
					End Site
					{
						OFFSET 0.00000 4.52755 0.00000
					}
				}
			}
			JOINT LeftShoulder
			{
				OFFSET 0.00000 8.21888 0.00000
				CHANNELS 3 Xrotation Yrotation Zrotation
				JOINT LeftArm
				{
					OFFSET 6.52904 -0.00002 0.00000
					CHANNELS 3 Xrotation Yrotation Zrotation
					JOINT LeftForeArm
					{
						OFFSET 10.44840 -0.00004 0.00000
						CHANNELS 3 Xrotation Yrotation Zrotation
						JOINT LeftHand
						{
							OFFSET 8.94727 -0.00003 0.00000
							CHANNELS 3 Xrotation Yrotation Zrotation
							JOINT LeftHandThumb
							{
								OFFSET 0.00000 0.00000 0.00000
								CHANNELS 3 Xrotation Yrotation Zrotation
								End Site
								{
									OFFSET 0.00000 0.00000 3.93700
								}
							}
							JOINT L_Wrist_End
							{
								OFFSET 3.93700 -0.00001 0.00000
								CHANNELS 3 Xrotation Yrotation Zrotation
							}
						}
					}
				}
			}
			JOINT RightShoulder
			{
				OFFSET 0.00000 8.21888 0.00000
				CHANNELS 3 Xrotation Yrotation Zrotation
				JOINT RightArm
				{
					OFFSET -6.52904 -0.00002 0.00000
					CHANNELS 3 Xrotation Yrotation Zrotation
					JOINT RightForeArm
					{
						OFFSET -10.44840 -0.00004 0.00000
						CHANNELS 3 Xrotation Yrotation Zrotation
						JOINT RightHand
						{
							OFFSET -8.94727 -0.00003 0.00000
							CHANNELS 3 Xrotation Yrotation Zrotation
							JOINT RightHandThumb
							{
								OFFSET 0.00000 0.00000 0.00000
								CHANNELS 3 Xrotation Yrotation Zrotation
								End Site
								{
									OFFSET 0.00000 0.00000 3.93700
								}
							}
							JOINT R_Wrist_End
							{
								OFFSET -5.39369 -0.00002 0.00000
								CHANNELS 3 Xrotation Yrotation Zrotation
							}
						}
					}
				}
			}
		}
	}
}
MOTION
Frames: 19
Frame Time: 0.066664
 48.9742 31.8541 -5.1141 61.6620 -84.7268 62.7968 12.6275 3.9648 -9.2001 4.1689 -0.0000 0.0000 -15.1656 13.4039 3.1427 15.0472 -0.0000 0.0000 -38.9999 5.0311 2.4951 24.1579 0.0000 0.0000 0.9036 -6.1917 30.9575 13.4661 0.0000 0.0000 -12.1344 -0.1221 -12.3673 18.2813 -7.4514 13.2469 -3.2042 29.4464 -2.8015 -47.0026 -45.5632 -22.3879 10.5535 10.5995 9.4194 111.6262 -61.8351 49.6172 -0.0004 -59.1381 -0.0002 4.3434 -22.4264 -10.8682 -0.0000 0.0000 -0.0000 -0.0000 0.0000 -0.0000 18.6539 -21.0829 4.9038 39.4115 44.0659 -5.3860 -179.9983 82.7398 179.9981 35.4002 3.6492 6.7893 -0.0000 0.0000 -0.0000 -0.0000 0.0000 -0.0000
 45.1708 31.0421 -5.0489 72.6620 -84.9645 74.1863 17.2861 11.9933 -9.1004 11.5875 0.0000 -0.0000 -15.9037 8.1701 1.0999 8.6268 -0.0000 0.0000 -30.8992 1.5652 4.5856 1.0281 0.0000 0.0000 1.9201 -4.9617 29.0870 12.5896 0.0000 0.0000 -13.5344 0.6335 -13.3941 19.2308 -6.4900 13.8874 -4.3559 28.6802 -3.4834 -44.9944 -47.8221 -20.6262 11.9641 10.0676 7.0361 108.5592 -59.3130 47.7852 -0.0004 -59.6311 -0.0002 0.0375 -26.4175 -11.0089 -0.0000 0.0000 -0.0000 -0.0000 0.0000 -0.0000 19.7636 -19.8029 6.5614 40.8167 44.0775 -7.5537 -179.9969 86.0789 179.9967 31.9352 4.6620 7.7479 -0.0000 0.0000 -0.0000 -0.0000 0.0000 -0.0000
 40.7592 31.0160 -5.0247 71.1532 -84.5899 69.8569 13.1677 22.6931 -0.4440 29.5593 -0.0000 0.0000 0.7914 -2.9430 -1.3489 15.1340 0.0000 0.0000 -22.7147 10.4894 7.7117 -5.5091 0.0000 0.0000 12.5295 -12.2280 26.7368 13.0658 0.0000 -0.0000 -13.2701 0.2477 -12.2216 15.8847 -6.1582 16.2721 -7.9810 26.6061 -2.0497 -39.5475 -46.4261 -20.5668 12.2073 11.7800 6.2724 104.1861 -61.7610 42.3704 -0.0004 -60.4988 -0.0002 2.7848 -23.2779 -16.4177 -0.0000 0.0000 -0.0000 -0.0000 0.0000 -0.0000 19.3061 -19.8166 5.3057 42.4068 43.7519 -6.2112 -179.9926 88.3735 179.9924 25.1375 5.8244 6.3834 -0.0000 -0.0000 0.0000 -0.0000 -0.0000 0.0000
 36.9240 31.5224 -5.3241 72.2389 -83.4915 64.8824 -8.4236 19.4584 15.9490 59.3232 -0.0000 0.0000 33.3254 1.9232 -1.4730 10.0446 0.0000 0.0000 -20.5902 15.2770 14.8209 -5.0790 0.0000 0.0000 14.7524 -16.8867 18.8567 20.4775 -0.0000 0.0000 -10.7608 -0.0163 -9.1911 10.8080 -5.9757 18.3673 -13.9148 24.8036 1.3643 -35.0733 -45.5203 -22.0107 10.7344 15.2513 9.1856 96.0008 -65.4735 35.2751 -0.0005 -66.5374 -0.0003 11.5254 -11.8209 -27.5606 -0.0000 0.0000 -0.0000 -0.0000 0.0000 -0.0000 19.2923 -18.6027 3.8142 45.5124 43.7398 -7.4200 -179.9903 88.7568 179.9901 25.7007 7.6655 8.1473 -0.0000 0.0000 -0.0000 -0.0000 0.0000 -0.0000
 33.9203 32.2417 -5.0215 61.4695 -81.4727 56.5780 -26.2119 5.1468 12.1342 81.1470 -0.0000 0.0000 30.3822 9.9831 0.5167 9.6612 -0.0000 -0.0000 -13.5213 13.4583 11.8247 -7.7279 0.0000 -0.0000 10.2125 -15.9317 11.6916 19.2228 -0.0000 0.0000 -9.7482 1.8113 -8.6315 10.0856 -5.3932 12.3340 -15.7685 22.1590 2.1295 -37.7395 -47.9060 -22.6836 10.6150 15.0604 9.0904 90.9626 -60.6889 37.0933 -0.0008 -75.0086 -0.0006 15.2676 -8.2212 -29.0168 -0.0000 0.0000 -0.0000 -0.0000 0.0000 -0.0000 19.3381 -16.2227 1.6354 55.5123 46.0910 -12.2942 -0.0033 86.3551 0.0031 20.2575 8.2182 2.1153 -0.0000 0.0000 -0.0000 -0.0000 0.0000 -0.0000
 31.1049 33.0387 -4.5191 59.8986 -81.2957 61.5379 -39.7856 -0.3266 1.4616 84.5931 -0.0000 0.0000 28.0132 29.8188 0.4047 20.8297 -0.0000 -0.0000 -7.0736 13.1921 5.2930 -6.9830 0.0000 -0.0000 6.9483 -14.3110 5.4679 18.1365 -0.0000 0.0000 -7.9858 4.3911 -9.1961 9.0555 -4.4965 2.6040 -13.8841 20.0856 -0.2743 -37.5124 -52.5652 -18.4080 10.3319 15.9381 9.2152 83.9155 -56.1478 36.7381 -0.0019 -83.6140 -0.0017 24.4075 -5.3940 -32.8948 -0.0000 0.0000 -0.0000 -0.0000 0.0000 -0.0000 17.2592 -13.3872 -1.6443 70.1652 52.4536 -18.6467 -0.0009 77.3076 0.0007 12.1939 10.7302 -7.1070 -0.0000 -0.0000 0.0000 -0.0000 -0.0000 0.0000
 28.1513 33.3295 -4.2245 61.2217 -80.9410 66.1621 -48.1868 -3.3136 -5.7848 74.9240 -0.0000 0.0000 22.8860 28.0836 2.7480 20.3338 -0.0000 0.0000 -2.4038 10.5817 3.2786 -5.2601 0.0000 -0.0000 2.3845 -16.0813 3.5947 19.4382 -0.0000 0.0000 -7.9848 5.5780 -9.3485 9.2001 -4.2293 -2.1251 -11.6233 19.2185 -4.3178 -33.1588 -54.6792 -12.2088 11.1918 18.0979 7.0949 73.1735 -52.0765 33.7846 -179.9922 -88.4545 -179.9920 28.6357 -6.1710 -34.0503 -0.0000 0.0000 -0.0000 -0.0000 0.0000 -0.0000 15.8311 -11.5149 -3.5986 80.7213 55.4266 -26.5789 -0.0007 72.7111 0.0005 10.1256 11.7757 -11.3832 -0.0000 0.0000 -0.0000 -0.0000 0.0000 -0.0000
 24.9752 32.9244 -4.0703 59.2693 -80.9334 65.1634 -48.7924 -2.1898 -9.2794 56.4974 -0.0000 0.0000 16.0188 19.9332 -1.1056 17.6818 0.0000 -0.0000 3.5229 4.1689 4.1485 -4.2836 -0.0000 -0.0000 -4.2714 -16.0973 1.2999 18.1154 0.0000 0.0000 -9.1889 6.6500 -8.6954 10.7578 -3.9162 -4.1746 -9.6699 18.4219 -8.4995 -27.3219 -55.9623 -5.8641 12.0578 18.5756 5.0630 70.0708 -50.6122 35.3958 -179.9957 -87.1943 -179.9955 27.7045 -7.6203 -35.2986 -0.0000 0.0000 -0.0000 -0.0000 0.0000 -0.0000 15.9590 -10.4733 -3.8905 84.9857 55.6730 -30.2032 -0.0006 70.6857 0.0004 7.5829 13.5067 -15.0207 -0.0000 0.0000 -0.0000 -0.0000 0.0000 -0.0000
 21.7274 31.9860 -4.1202 66.1169 -81.3791 71.2761 -43.4831 4.1066 -9.0518 32.5056 -0.0000 0.0000 15.1667 9.8598 -12.7712 11.8668 0.0000 0.0000 8.3154 4.4110 5.3076 -1.2649 -0.0000 -0.0000 -12.7408 -14.7283 1.8808 16.5098 0.0000 0.0000 -10.8982 7.6754 -7.6127 12.9813 -3.4094 -4.5356 -9.0018 18.7457 -11.4530 -23.8873 -56.2184 -1.6459 12.9807 19.3165 2.2803 67.6433 -51.2283 35.2811 -179.9923 -88.4348 -179.9921 29.8863 -8.3746 -38.5830 -0.0000 0.0000 -0.0000 -0.0000 0.0000 -0.0000 15.8840 -9.3731 -3.6416 87.2730 54.4838 -32.4394 -0.0006 70.5238 0.0004 5.1232 14.4339 -17.7840 -0.0000 -0.0000 0.0000 -0.0000 -0.0000 0.0000
 18.1718 31.1371 -4.2195 66.8388 -80.1887 70.8201 -36.7578 7.1399 -10.3669 10.0033 -0.0000 0.0000 9.3446 10.6526 -17.7257 10.8009 0.0000 0.0000 12.8034 0.7610 6.4681 1.7694 -0.0000 0.0000 -15.0020 -10.0908 8.9965 14.5881 0.0000 -0.0000 -12.6820 8.1753 -7.1252 13.2607 -3.0447 -3.9886 -11.5324 21.6960 -14.2097 -13.8432 -59.3300 5.3733 14.4783 19.7413 -1.6479 65.5196 -51.5556 34.8980 -0.0132 -89.0835 -0.0129 29.9295 -9.4279 -42.3823 -0.0000 0.0000 -0.0000 -0.0000 0.0000 -0.0000 16.6364 -8.9910 -2.4470 84.3184 54.0242 -27.8215 -0.0006 69.9333 0.0004 2.9049 16.7148 -19.4102 -0.0000 -0.0000 0.0000 -0.0000 -0.0000 0.0000
 13.9995 30.7774 -4.2593 66.3821 -80.4207 71.7488 -29.7002 -2.4297 -12.9684 -0.5306 0.0000 0.0000 1.5737 17.8254 -12.6774 8.8045 0.0000 0.0000 16.0436 -10.1440 3.7829 11.8228 -0.0000 -0.0000 -9.9624 -0.1104 29.9720 16.1461 0.0000 -0.0000 -12.5299 9.1881 -7.3864 12.4198 -2.6704 -6.8405 -13.8219 22.6776 -13.2594 -11.4513 -62.1902 6.7880 14.7750 20.8976 -2.3569 62.0712 -51.7885 30.8641 -0.0062 -88.0563 -0.0060 28.6390 -10.8180 -40.1489 -0.0000 0.0000 -0.0000 -0.0000 0.0000 -0.0000 17.0801 -10.5259 -2.0028 77.0602 57.0371 -17.2187 -0.0006 69.3609 0.0004 4.6622 16.1775 -17.1323 -0.0000 0.0000 -0.0000 -0.0000 0.0000 -0.0000
 9.8762 31.2670 -3.7293 66.9866 -80.6389 78.3007 -25.8383 -6.5720 -19.7008 -0.6017 -0.0000 -0.0000 12.5153 22.5166 -8.4342 13.9185 0.0000 0.0000 1.1278 -24.5785 -14.8642 39.2670 -0.0000 0.0000 15.2967 22.0186 41.0179 15.2141 -0.0000 0.0000 -10.9028 9.5389 -8.5038 9.9220 -3.1389 -12.3939 -13.7783 21.5811 -11.6374 -17.5683 -61.6404 1.6802 15.5918 21.4341 -3.4610 58.2352 -51.3046 25.5180 -0.0023 -84.7702 -0.0021 24.2729 -12.9686 -36.5730 -0.0000 0.0000 -0.0000 -0.0000 0.0000 -0.0000 17.3285 -12.6640 -2.7239 68.4933 60.0395 -5.8317 -0.0005 68.8974 0.0004 10.1094 14.8097 -16.8215 -0.0000 0.0000 -0.0000 -0.0000 0.0000 -0.0000
 6.4912 31.9687 -3.6625 66.6614 -82.3904 77.2964 -15.5857 -4.1621 -19.4247 -2.8434 -0.0000 -0.0000 7.7991 18.4631 0.6442 16.2773 0.0000 0.0000 -15.6323 -11.8617 -19.6131 75.7347 -0.0000 0.0000 18.3576 -3.9501 37.7473 16.3669 -0.0000 0.0000 -8.6660 7.3539 -9.1091 9.0039 -3.9862 -7.9039 -13.4992 22.5854 -8.3966 -29.1842 -55.7990 -11.7786 14.4592 21.1168 -0.8209 66.8349 -53.2297 27.7563 -0.0014 -81.6668 -0.0012 26.6128 -14.5200 -34.3059 -0.0000 0.0000 -0.0000 -0.0000 0.0000 -0.0000 16.0492 -14.1093 -5.8316 66.2004 58.9728 -4.8212 -0.0008 74.6268 0.0006 16.9170 9.3026 -15.0267 -0.0000 0.0000 -0.0000 -0.0000 0.0000 -0.0000
 3.3820 32.7170 -4.0238 60.1795 -83.4295 65.4367 -6.4321 -3.6343 -13.2742 -4.9811 -0.0000 -0.0000 5.4014 14.8407 -0.2345 16.3855 -0.0000 0.0000 -29.9969 -1.2071 -12.5088 98.5121 -0.0000 0.0000 11.5778 -10.0095 20.8995 18.0494 0.0000 -0.0000 -8.1892 3.9397 -9.2873 9.3818 -5.5918 1.0549 -13.2315 25.2202 -6.1030 -29.4589 -51.3819 -15.4667 13.6237 18.4917 2.6822 79.7367 -56.6026 32.7225 -0.0007 -72.6549 -0.0005 21.0551 -17.4977 -28.1182 -0.0000 0.0000 -0.0000 -0.0000 0.0000 -0.0000 16.9352 -15.1037 -4.2350 60.9123 52.8534 -7.1765 -0.0013 80.5307 0.0011 19.9970 8.8578 -12.5283 -0.0000 0.0000 -0.0000 -0.0000 0.0000 -0.0000
 0.2661 33.1711 -4.3298 32.9681 -81.5573 33.9485 0.6689 -0.4532 -8.5797 -3.8520 -0.0000 0.0000 1.5119 8.7568 1.2659 15.0472 -0.0000 0.0000 -41.6804 2.6358 -5.6967 102.6641 -0.0000 0.0000 3.7094 -11.4850 13.3766 16.9247 0.0000 0.0000 -8.0206 0.6618 -9.3574 10.6299 -7.5642 7.4910 -15.4924 26.8479 -1.9607 -24.8661 -49.0445 -18.9819 10.5997 13.0923 7.0936 102.4636 -59.9217 46.7117 -0.0004 -59.3596 -0.0002 12.3722 -21.9908 -21.1217 -0.0000 0.0000 -0.0000 -0.0000 0.0000 -0.0000 18.0132 -18.6639 -0.7231 52.0230 47.9056 -7.9842 -0.0068 88.2196 0.0066 24.1985 8.2365 -6.8484 -0.0000 -0.0000 0.0000 -0.0000 -0.0000 0.0000
 -2.9737 33.1288 -4.4801 20.3623 -81.3163 19.7715 6.5965 3.2537 -6.9202 0.2398 0.0000 -0.0000 -5.0996 8.5831 2.1306 16.8386 0.0000 0.0000 -47.1271 4.2066 -0.2732 88.8344 0.0000 0.0000 -2.6996 -15.6118 14.1222 15.6619 -0.0000 0.0000 -9.0325 -0.6851 -9.7367 14.1024 -8.3469 10.1323 -19.3037 27.7602 1.6811 -16.8925 -48.1673 -18.3365 10.2985 10.1016 8.6673 116.1239 -62.9998 57.5068 -0.0002 -49.7079 -0.0001 10.8655 -25.9384 -17.2860 -0.0000 0.0000 -0.0000 -0.0000 0.0000 -0.0000 18.5982 -19.9407 1.6560 46.1635 47.3837 -8.9484 -179.9950 87.5753 179.9948 28.0323 6.5322 -0.7102 -0.0000 0.0000 -0.0000 -0.0000 0.0000 -0.0000
 -6.2294 32.5051 -4.4824 20.5323 -82.4637 19.8836 10.7778 2.6440 -7.4217 4.9092 -0.0000 0.0000 -13.9281 13.7974 8.6552 14.3307 0.0000 0.0000 -45.1067 2.9358 3.2477 58.2739 -0.0000 0.0000 -7.2303 -20.2855 19.3256 14.9710 0.0000 0.0000 -11.1054 -0.8630 -10.8532 17.1996 -8.0025 12.3163 -23.2492 27.9156 3.9068 -8.8128 -46.6877 -17.2008 10.6656 9.8741 7.7606 119.1623 -63.3417 60.8547 -0.0002 -45.5716 -0.0001 12.1633 -29.5720 -12.0599 -0.0000 0.0000 -0.0000 -0.0000 0.0000 -0.0000 18.7852 -19.7771 3.9135 44.0464 46.6569 -12.1177 -179.9973 85.5103 179.9971 31.8458 5.5553 4.4642 -0.0000 0.0000 -0.0000 -0.0000 0.0000 -0.0000
 -9.7661 31.6185 -4.2873 24.3660 -83.8949 25.6378 16.3624 5.5105 -8.7407 8.4631 0.0000 -0.0000 -16.2819 11.2706 5.3333 10.3325 0.0000 -0.0000 -34.7784 1.7426 3.5952 18.1698 -0.0000 0.0000 -3.0146 -8.0881 28.2095 12.4157 -0.0000 0.0000 -13.0739 -0.8313 -12.4447 19.0195 -7.9172 12.8216 -26.2657 28.3162 5.4981 -3.4288 -44.9521 -16.8037 11.3599 8.7904 7.0452 118.2017 -62.2844 58.3036 -0.0002 -45.2338 -0.0001 8.2584 -33.2245 -7.5522 -0.0000 0.0000 -0.0000 -0.0000 0.0000 -0.0000 18.9001 -19.7748 5.7157 44.9607 47.0909 -15.9770 -179.9947 87.7099 179.9945 29.6440 5.7271 7.9347 -0.0000 -0.0000 0.0000 -0.0000 -0.0000 0.0000
 -13.8333 31.0475 -4.1261 23.1806 -84.4617 24.0787 18.9164 14.2055 -5.9494 19.7630 -0.0000 0.0000 -10.4638 3.5844 1.5991 -1.8282 -0.0000 0.0000 -25.8216 9.2664 4.9506 2.0123 0.0000 0.0000 1.5771 -11.1580 22.4077 6.2758 0.0000 0.0000 -13.9577 -1.1368 -12.2017 19.0216 -7.9420 13.9684 -28.1712 29.2755 7.3703 -2.6269 -43.9844 -20.0685 12.0292 8.1464 6.3236 117.7662 -60.5449 55.6977 -0.0002 -45.9722 -0.0001 1.6195 -35.3990 -8.0776 -0.0000 0.0000 -0.0000 -0.0000 0.0000 -0.0000 19.3847 -19.7812 6.8579 43.9367 47.4012 -14.5433 -179.9929 88.3132 179.9926 29.2914 4.3851 10.4553 -0.0000 -0.0000 0.0000 -0.0000 -0.0000 0.0000
